<svg width="3136" height="14911" viewBox="0 0 3136 14911" fill="none" xmlns="http://www.w3.org/2000/svg">
<path opacity="0.2" d="M1026.76 11142.5L1027.59 11138.9C1549.63 11275 1522.09 11609.5 1492.06 11964C1469.71 12229.4 1447.26 12503.7 1648.63 12717.7C1810.33 12889.6 1941.03 12825.2 2092.34 12750.3C2201.9 12696.6 2325.42 12635.3 2479.53 12657.7C2655.94 12683.5 2844.03 12815.2 3054.15 13060.5L3051.34 13062.9C2842 12818.5 2654.57 12687.2 2479.35 12661.6C2326.96 12639.3 2203.31 12700.1 2094.28 12753.7C1941.38 12829 1809.75 12894.1 1645.83 12720.1C1443.01 12504.8 1465.87 12229.9 1488.1 11964C1517.97 11611.2 1545.76 11277.7 1026.76 11142.5Z" fill="#ABABAB"/>
<path opacity="0.2" d="M3031 1.5C2598.17 17.3333 1678.6 219.8 1463 903C1247.4 1586.2 1957.83 2324 2340 2607.5C2751.17 2878.83 3326.8 3984 2340 6234C1106.5 9046.5 1272.5 9261 2340 10693L3133.5 11722C2866.83 11757.3 2359.1 12027.4 2461.5 12825C2563.9 13622.6 1466.83 14547 905.5 14909.5" stroke="#ABABAB" stroke-width="2"/>
<path opacity="0.2" d="M1 92C433.833 107.833 1353.4 310.3 1569 993.5C1784.6 1676.7 1074.17 2414.5 692 2698C280.833 2969.33 -294.8 4074.5 692 6324.5C1925.5 9137 1759.5 9351.5 692 10783.5" stroke="#ABABAB" stroke-width="2"/>
</svg>
